<svg id="app-store" xmlns="http://www.w3.org/2000/svg" width="110.768" height="40.026" viewBox="0 0 110.768 40.026">
  <g id="Rectangle_404" data-name="Rectangle 404" transform="translate(0 0)" stroke="#a2a5a7" stroke-width="2">
    <rect width="110.768" height="40.026" rx="10" stroke="none"/>
    <rect x="1" y="1" width="108.768" height="38.026" rx="9" fill="none"/>
  </g>
  <g id="Group_195" data-name="Group 195" transform="translate(8.485 10.679)">
    <g id="Group_194" data-name="Group 194" transform="translate(0 0)">
      <g id="Group_191" data-name="Group 191" transform="translate(0 0.236)">
        <g id="Group_190" data-name="Group 190">
          <g id="Group_188" data-name="Group 188">
            <g id="Group_187" data-name="Group 187">
              <path id="Path_279" data-name="Path 279" d="M1484.035,1096.73a4.127,4.127,0,0,1,2.224-3.464,5.02,5.02,0,0,0-3.767-1.8c-1.586-.146-3.123.839-3.93.839-.824,0-2.067-.824-3.406-.8a5.141,5.141,0,0,0-4.222,2.275c-1.826,2.793-.465,6.9,1.285,9.155.875,1.106,1.9,2.34,3.235,2.3,1.309-.048,1.8-.738,3.379-.738s2.026.738,3.39.71c1.4-.02,2.29-1.11,3.134-2.226a8.736,8.736,0,0,0,1.434-2.579A4.1,4.1,0,0,1,1484.035,1096.73Z" transform="translate(-1470.066 -1087.071)" fill="#fff"/>
              <path id="Path_280" data-name="Path 280" d="M1481.067,1089.636a3.757,3.757,0,0,0,1.052-2.911,4.909,4.909,0,0,0-3.027,1.385,3.6,3.6,0,0,0-1.08,2.8A4.084,4.084,0,0,0,1481.067,1089.636Z" transform="translate(-1469.678 -1086.725)" fill="#fff"/>
            </g>
          </g>
          <g id="Group_189" data-name="Group 189" transform="translate(23.085 7.632)">
            <path id="Path_281" data-name="Path 281" d="M1499.507,1102.7h-4.468l-1.073,2.8h-1.893l4.233-10.357h1.967l4.233,10.357h-1.925Zm-4-1.292h3.541l-1.745-4.543h-.049Z" transform="translate(-1492.073 -1094.974)" fill="#fff"/>
            <path id="Path_282" data-name="Path 282" d="M1511.108,1101.943c0,2.347-1.422,3.854-3.567,3.854a2.991,2.991,0,0,1-2.689-1.321h-.04v3.74h-1.755v-10.049h1.7v1.256h.032a3.132,3.132,0,0,1,2.721-1.335C1509.678,1098.089,1511.108,1099.6,1511.108,1101.943Zm-1.8,0a2.267,2.267,0,1,0-2.258,2.541A2.265,2.265,0,0,0,1509.3,1101.943Z" transform="translate(-1491.536 -1095.189)" fill="#fff"/>
            <path id="Path_283" data-name="Path 283" d="M1520.075,1101.943c0,2.347-1.421,3.854-3.566,3.854a2.991,2.991,0,0,1-2.69-1.321h-.041v3.74h-1.754v-10.049h1.7v1.256h.032a3.13,3.13,0,0,1,2.721-1.335C1518.646,1098.089,1520.075,1099.6,1520.075,1101.943Zm-1.8,0a2.267,2.267,0,1,0-2.258,2.541A2.266,2.266,0,0,0,1518.272,1101.943Z" transform="translate(-1491.097 -1095.189)" fill="#fff"/>
            <path id="Path_284" data-name="Path 284" d="M1525.711,1102.6c.13,1.027,1.259,1.7,2.8,1.7,1.479,0,2.543-.675,2.543-1.6,0-.8-.641-1.286-2.161-1.615l-1.519-.323c-2.152-.46-3.152-1.349-3.152-2.792,0-1.787,1.763-3.015,4.266-3.015,2.477,0,4.175,1.228,4.232,3.015h-1.771c-.106-1.033-1.073-1.658-2.486-1.658s-2.38.632-2.38,1.551c0,.732.618,1.163,2.128,1.493l1.291.28c2.405.5,3.4,1.356,3.4,2.871,0,1.938-1.748,3.151-4.525,3.151-2.6,0-4.355-1.185-4.468-3.058Z" transform="translate(-1490.516 -1094.96)" fill="#fff"/>
            <path id="Path_285" data-name="Path 285" d="M1536.238,1096.246v1.787h1.626v1.228h-1.626v4.162c0,.647.325.948,1.039.948.179,0,.465-.021.578-.035v1.22a5.424,5.424,0,0,1-.974.071c-1.731,0-2.405-.574-2.405-2.038v-4.328h-1.243v-1.228h1.243v-1.787Z" transform="translate(-1490.06 -1095.054)" fill="#fff"/>
            <path id="Path_286" data-name="Path 286" d="M1538.545,1101.942a4.058,4.058,0,0,1,8.107,0c0,2.383-1.568,3.869-4.054,3.869S1538.545,1104.325,1538.545,1101.942Zm6.32,0c0-1.629-.845-2.591-2.267-2.591s-2.266.969-2.266,2.591c0,1.637.844,2.591,2.266,2.591S1544.865,1103.579,1544.865,1101.942Z" transform="translate(-1489.8 -1095.188)" fill="#fff"/>
            <path id="Path_287" data-name="Path 287" d="M1547.653,1098.168h1.673v1.286h.041a2.018,2.018,0,0,1,2.056-1.364,3.12,3.12,0,0,1,.6.057v1.451a2.742,2.742,0,0,0-.789-.094,1.658,1.658,0,0,0-1.827,1.737v4.479h-1.755Z" transform="translate(-1489.354 -1095.189)" fill="#fff"/>
            <path id="Path_288" data-name="Path 288" d="M1559.891,1103.5c-.236,1.371-1.748,2.311-3.681,2.311-2.486,0-4.029-1.472-4.029-3.833a3.684,3.684,0,0,1,3.956-3.9,3.526,3.526,0,0,1,3.852,3.725v.531h-6.037v.094a2.1,2.1,0,0,0,2.3,2.139,1.964,1.964,0,0,0,1.974-1.062Zm-5.931-2.254h4.272a1.939,1.939,0,0,0-2.1-1.917A2.054,2.054,0,0,0,1553.96,1101.246Z" transform="translate(-1489.133 -1095.188)" fill="#fff"/>
          </g>
        </g>
      </g>
      <g id="Group_193" data-name="Group 193" transform="translate(24.26)">
        <g id="Group_192" data-name="Group 192">
          <path id="Path_289" data-name="Path 289" d="M1495.228,1086.735a2.493,2.493,0,1,1,0,4.976h-2.034v-4.976Zm-1.159,4.272h1.062a1.786,1.786,0,1,0,0-3.569h-1.062Z" transform="translate(-1493.194 -1086.489)" fill="#fff"/>
          <path id="Path_290" data-name="Path 290" d="M1498.6,1089.923a2.005,2.005,0,1,1,2.005,1.952A1.829,1.829,0,0,1,1498.6,1089.923Zm3.147,0c0-.815-.415-1.291-1.141-1.291s-1.139.476-1.139,1.291.41,1.293,1.139,1.293S1501.749,1090.739,1501.749,1089.923Z" transform="translate(-1492.929 -1086.58)" fill="#fff"/>
          <path id="Path_291" data-name="Path 291" d="M1507.725,1091.807h-.871l-.878-2.766h-.067l-.875,2.766h-.861l-1.172-3.755h.851l.761,2.866h.062l.875-2.866h.8l.874,2.866h.066l.758-2.866h.838Z" transform="translate(-1492.714 -1086.586)" fill="#fff"/>
          <path id="Path_292" data-name="Path 292" d="M1509.557,1088.046h.808v.6h.062a1.5,1.5,0,0,1,2.74.727v2.431h-.838v-2.245a.8.8,0,0,0-.918-.9.916.916,0,0,0-1.014.952v2.2h-.839Z" transform="translate(-1492.393 -1086.58)" fill="#fff"/>
          <path id="Path_293" data-name="Path 293" d="M1514.273,1086.47h.838v5.221h-.838Z" transform="translate(-1492.162 -1086.47)" fill="#fff"/>
          <path id="Path_294" data-name="Path 294" d="M1516.184,1089.923a2.006,2.006,0,1,1,2.006,1.952A1.829,1.829,0,0,1,1516.184,1089.923Zm3.147,0c0-.815-.414-1.291-1.141-1.291s-1.139.476-1.139,1.291.41,1.293,1.139,1.293S1519.331,1090.739,1519.331,1089.923Z" transform="translate(-1492.068 -1086.58)" fill="#fff"/>
          <path id="Path_295" data-name="Path 295" d="M1520.849,1090.739c0-.676.57-1.065,1.581-1.12l1.151-.059v-.324c0-.4-.3-.621-.87-.621-.469,0-.793.152-.886.417h-.812c.086-.645.772-1.058,1.737-1.058,1.066,0,1.667.469,1.667,1.262v2.565h-.808v-.527h-.067a1.485,1.485,0,0,1-1.277.589C1521.446,1091.864,1520.849,1091.426,1520.849,1090.739Zm2.732-.321v-.314l-1.037.059c-.585.034-.851.21-.851.541s.331.535.788.535C1523.112,1091.24,1523.58,1090.884,1523.58,1090.419Z" transform="translate(-1491.84 -1086.58)" fill="#fff"/>
          <path id="Path_296" data-name="Path 296" d="M1525.3,1089.813a1.735,1.735,0,0,1,1.764-1.939,1.439,1.439,0,0,1,1.3.659h.063v-2.063h.839v5.221h-.8v-.593h-.067a1.522,1.522,0,0,1-1.334.655A1.731,1.731,0,0,1,1525.3,1089.813Zm.866,0c0,.8.425,1.275,1.136,1.275a1.283,1.283,0,1,0-1.136-1.275Z" transform="translate(-1491.623 -1086.47)" fill="#fff"/>
          <path id="Path_297" data-name="Path 297" d="M1532.394,1089.923a2.005,2.005,0,1,1,2.005,1.952A1.829,1.829,0,0,1,1532.394,1089.923Zm3.146,0c0-.815-.413-1.291-1.14-1.291s-1.139.476-1.139,1.291.41,1.293,1.139,1.293S1535.539,1090.739,1535.539,1089.923Z" transform="translate(-1491.275 -1086.58)" fill="#fff"/>
          <path id="Path_298" data-name="Path 298" d="M1537.289,1088.046h.808v.6h.063a1.5,1.5,0,0,1,2.739.727v2.431h-.838v-2.245a.8.8,0,0,0-.918-.9.916.916,0,0,0-1.014.952v2.2h-.839Z" transform="translate(-1491.036 -1086.58)" fill="#fff"/>
          <path id="Path_299" data-name="Path 299" d="M1545.319,1087.043V1088h.921v.624h-.921v1.932c0,.393.184.565.6.565a3.126,3.126,0,0,0,.32-.017v.617a3.112,3.112,0,0,1-.456.038c-.933,0-1.3-.29-1.3-1.014v-2.121h-.675V1088h.675v-.953Z" transform="translate(-1490.717 -1086.512)" fill="#fff"/>
          <path id="Path_300" data-name="Path 300" d="M1547.22,1086.47h.832v2.069h.066a1.337,1.337,0,0,1,1.3-.673,1.315,1.315,0,0,1,1.464,1.4v2.424h-.84v-2.242a.807.807,0,0,0-.908-.9.938.938,0,0,0-1.07.953v2.193h-.839Z" transform="translate(-1490.55 -1086.47)" fill="#fff"/>
          <path id="Path_301" data-name="Path 301" d="M1555.547,1090.788a1.728,1.728,0,0,1-1.842,1.087,1.805,1.805,0,0,1-1.964-1.939,1.83,1.83,0,0,1,1.961-1.962,1.746,1.746,0,0,1,1.9,1.894v.259h-3v.042a1.2,1.2,0,0,0,2.143.62Zm-2.951-1.21h2.147a.966.966,0,0,0-1.047-.972A1.032,1.032,0,0,0,1552.6,1089.577Z" transform="translate(-1490.329 -1086.58)" fill="#fff"/>
        </g>
      </g>
    </g>
  </g>
</svg>
