<svg id="play-store" xmlns="http://www.w3.org/2000/svg" xmlns:xlink="http://www.w3.org/1999/xlink" width="131.438" height="40.026" viewBox="0 0 131.438 40.026">
  <defs>
    <linearGradient id="linear-gradient" x1="1.651" y1="-6.071" x2="0.356" y2="-5.395" gradientUnits="objectBoundingBox">
      <stop offset="0" stop-color="#00a0ff"/>
      <stop offset="0.007" stop-color="#00a1ff"/>
      <stop offset="0.26" stop-color="#00beff"/>
      <stop offset="0.512" stop-color="#00d2ff"/>
      <stop offset="0.76" stop-color="#00dfff"/>
      <stop offset="1" stop-color="#00e3ff"/>
    </linearGradient>
    <linearGradient id="linear-gradient-2" x1="2.01" y1="-17.424" x2="-0.365" y2="-17.424" gradientUnits="objectBoundingBox">
      <stop offset="0" stop-color="#ffe000"/>
      <stop offset="0.409" stop-color="#ffbd00"/>
      <stop offset="0.775" stop-color="orange"/>
      <stop offset="1" stop-color="#ff9c00"/>
    </linearGradient>
    <linearGradient id="linear-gradient-3" x1="0.934" y1="-12.395" x2="-0.427" y2="-10.609" gradientUnits="objectBoundingBox">
      <stop offset="0" stop-color="#ff3a44"/>
      <stop offset="1" stop-color="#c31162"/>
    </linearGradient>
    <linearGradient id="linear-gradient-4" x1="-0.114" y1="-11.826" x2="0.493" y2="-11.028" gradientUnits="objectBoundingBox">
      <stop offset="0" stop-color="#32a071"/>
      <stop offset="0.068" stop-color="#2da771"/>
      <stop offset="0.476" stop-color="#15cf74"/>
      <stop offset="0.801" stop-color="#06e775"/>
      <stop offset="1" stop-color="#00f076"/>
    </linearGradient>
  </defs>
  <g id="g12" transform="translate(0 0)">
    <g id="Rectangle_403" data-name="Rectangle 403" stroke="#a2a5a7" stroke-width="2">
      <rect width="131.438" height="40.026" rx="10" stroke="none"/>
      <rect x="1" y="1" width="129.438" height="38.026" rx="9" fill="none"/>
    </g>
    <g id="g18" transform="translate(40.344 6.95)">
      <path id="path20" d="M47.577,10.461a2.727,2.727,0,0,1-.722,1.982,2.817,2.817,0,0,1-2.147.88,2.923,2.923,0,0,1-2.145-.889,3.029,3.029,0,0,1-.884-2.215,3.011,3.011,0,0,1,.884-2.21,2.908,2.908,0,0,1,2.145-.894,3,3,0,0,1,1.2.252,2.361,2.361,0,0,1,.912.662l-.508.523a1.962,1.962,0,0,0-1.6-.7,2.211,2.211,0,0,0-1.595.657,2.3,2.3,0,0,0-.669,1.712,2.312,2.312,0,0,0,.669,1.717,2.231,2.231,0,0,0,1.595.657,2.2,2.2,0,0,0,1.629-.662,1.883,1.883,0,0,0,.489-1.2H44.709v-.716h2.825A2.078,2.078,0,0,1,47.577,10.461Z" transform="translate(-41.68 -7.115)" fill="#fff" stroke="#fff" stroke-miterlimit="10" stroke-width="0.16"/>
    </g>
    <g id="g22" transform="translate(47.319 7.086)">
      <path id="path24" d="M52.274,7.981H49.621V9.861h2.392v.716H49.621v1.881h2.653v.73H48.869V7.251h3.405Z" transform="translate(-48.869 -7.251)" fill="#fff" stroke="#fff" stroke-miterlimit="10" stroke-width="0.16"/>
    </g>
    <g id="g26" transform="translate(51.508 7.086)">
      <path id="path28" d="M55.566,13.187h-.751V7.981H53.187v-.73h4.008v.73H55.566Z" transform="translate(-53.187 -7.251)" fill="#fff" stroke="#fff" stroke-miterlimit="10" stroke-width="0.16"/>
    </g>
    <g id="g30" transform="translate(58.416 7.086)">
      <path id="path32" d="M60.308,13.187V7.251h.75v5.936Z" transform="translate(-60.308 -7.251)" fill="#fff" stroke="#fff" stroke-miterlimit="10" stroke-width="0.16"/>
    </g>
    <g id="g34" transform="translate(60.112 7.086)">
      <path id="path36" d="M64.435,13.187H63.69V7.981H62.056v-.73h4.012v.73H64.435Z" transform="translate(-62.056 -7.251)" fill="#fff" stroke="#fff" stroke-miterlimit="10" stroke-width="0.16"/>
    </g>
    <g id="g38" transform="translate(66.574 6.95)">
      <path id="path40" d="M73.855,12.424a2.993,2.993,0,0,1-4.278,0,3.065,3.065,0,0,1-.86-2.2,3.065,3.065,0,0,1,.86-2.2,2.982,2.982,0,0,1,4.273,0,3.053,3.053,0,0,1,.864,2.2A3.065,3.065,0,0,1,73.855,12.424Zm-3.723-.5a2.216,2.216,0,0,0,3.168,0,2.358,2.358,0,0,0,.65-1.707,2.358,2.358,0,0,0-.65-1.707,2.216,2.216,0,0,0-3.168,0,2.354,2.354,0,0,0-.65,1.707A2.354,2.354,0,0,0,70.131,11.926Z" transform="translate(-68.717 -7.115)" fill="#fff" stroke="#fff" stroke-miterlimit="10" stroke-width="0.16"/>
    </g>
    <g id="g42" transform="translate(73.625 7.086)">
      <path id="path44" d="M75.985,13.187V7.251H76.9l2.835,4.617h.033l-.033-1.141V7.251h.75v5.936H79.7L76.73,8.343H76.7l.032,1.145v3.7Z" transform="translate(-75.985 -7.251)" fill="#fff" stroke="#fff" stroke-miterlimit="10" stroke-width="0.16"/>
    </g>
    <path id="path46" d="M67.715,21.862a4.211,4.211,0,1,0,4.155,4.211A4.114,4.114,0,0,0,67.715,21.862Zm0,6.764a2.416,2.416,0,0,1-2.331-2.552,2.344,2.344,0,1,1,4.668,0A2.42,2.42,0,0,1,67.715,28.626Zm-9.054-6.764a4.211,4.211,0,1,0,4.15,4.211A4.111,4.111,0,0,0,58.661,21.862Zm0,6.764a2.419,2.419,0,0,1-2.336-2.552,2.343,2.343,0,1,1,4.667,0A2.415,2.415,0,0,1,58.661,28.626ZM47.885,23.152v1.79h4.2a3.748,3.748,0,0,1-.955,2.248A4.276,4.276,0,0,1,47.885,28.5a4.755,4.755,0,0,1,0-9.505,4.415,4.415,0,0,1,3.164,1.276L52.287,19a6.069,6.069,0,0,0-4.4-1.8,6.541,6.541,0,0,0,0,13.082,5.818,5.818,0,0,0,4.483-1.837,5.965,5.965,0,0,0,1.52-4.177,6.067,6.067,0,0,0-.1-1.118Zm44.06,1.388A3.853,3.853,0,0,0,88.4,21.862a3.97,3.97,0,0,0-3.9,4.211,4.108,4.108,0,0,0,7.55,2.344l-1.411-.956a2.355,2.355,0,0,1-2.037,1.165,2.1,2.1,0,0,1-2-1.276l5.532-2.331Zm-5.64,1.4a2.294,2.294,0,0,1,2.16-2.456A1.6,1.6,0,0,1,90,24.381Zm-4.5,4.086h1.818V17.652H81.809ZM78.831,22.8H78.77a2.842,2.842,0,0,0-2.175-.937,4.219,4.219,0,0,0,0,8.422,2.8,2.8,0,0,0,2.175-.956h.061v.6c0,1.61-.845,2.476-2.208,2.476a2.3,2.3,0,0,1-2.085-1.5l-1.581.673a3.95,3.95,0,0,0,3.666,2.49c2.132,0,3.931-1.277,3.931-4.384V22.118H78.831Zm-2.08,5.827a2.4,2.4,0,0,1-2.3-2.538,2.416,2.416,0,0,1,2.3-2.567,2.358,2.358,0,0,1,2.209,2.567A2.34,2.34,0,0,1,76.751,28.626Zm23.708-10.974H96.11V30.028h1.813v-4.69h2.536a3.846,3.846,0,1,0,0-7.686Zm.048,5.965H97.923V19.373h2.583a2.122,2.122,0,1,1,0,4.244Zm11.211-1.779a3.394,3.394,0,0,0-3.233,1.895l1.609.687a1.711,1.711,0,0,1,1.657-.909,1.757,1.757,0,0,1,1.91,1.592v.13a3.938,3.938,0,0,0-1.9-.479c-1.734,0-3.5.971-3.5,2.784a2.826,2.826,0,0,0,3.016,2.726,2.556,2.556,0,0,0,2.317-1.212h.062v.956h1.751V25.26C115.412,23.067,113.8,21.838,111.717,21.838Zm-.218,6.783c-.594,0-1.42-.3-1.42-1.048,0-.958,1.031-1.326,1.924-1.326a3.214,3.214,0,0,1,1.658.416A2.217,2.217,0,0,1,111.5,28.621Zm10.294-6.512-2.084,5.366h-.062l-2.156-5.366h-1.956l3.238,7.5-1.848,4.172h1.9l4.989-11.67Zm-16.348,7.919h1.818V17.652h-1.818Z" transform="translate(-1.326 -0.171)" fill="#fff"/>
    <g id="g48" transform="translate(9.827 7.546)">
      <path id="path64" d="M10.674,7.783a2,2,0,0,0-.451,1.392v21.9a2,2,0,0,0,.451,1.392l.071.067L22.8,20.266v-.29L10.745,7.711Z" transform="translate(-10.223 -7.711)" fill="url(#linear-gradient)"/>
    </g>
    <g id="g66" transform="translate(22.4 15.721)">
      <path id="path78" d="M27.2,24.361,23.183,20.27v-.29l4.017-4.09.09.053L32.048,18.7c1.358.782,1.358,2.069,0,2.856l-4.758,2.751Z" transform="translate(-23.183 -15.891)" fill="url(#linear-gradient-2)"/>
    </g>
    <g id="g80" transform="translate(10.278 19.955)">
      <path id="path88" d="M26.917,24.311,22.81,20.128,10.688,32.472a1.563,1.563,0,0,0,2.023.058l14.207-8.219" transform="translate(-10.688 -20.128)" fill="url(#linear-gradient-3)"/>
    </g>
    <g id="g90" transform="translate(10.278 7.224)">
      <path id="path104" d="M26.917,15.939,12.711,7.719a1.568,1.568,0,0,0-2.023.064L22.81,20.12Z" transform="translate(-10.688 -7.389)" fill="url(#linear-gradient-4)"/>
    </g>
  </g>
</svg>
